<svg width="43" height="29" viewBox="0 0 43 29" fill="none" xmlns="http://www.w3.org/2000/svg">
<path d="M22.8906 7.20703C22.8906 6.10026 22.832 5.14323 22.7148 4.33594C22.5977 3.51562 22.4349 2.88411 22.2266 2.44141H15.0391V23.0078C15.0391 23.5547 15.0586 24.0234 15.0977 24.4141C15.1497 24.7917 15.2279 25.1302 15.332 25.4297C15.6185 25.5078 15.9245 25.5599 16.25 25.5859C16.5885 25.599 16.9531 25.6055 17.3438 25.6055H19.1016V28.3398C18.0859 28.2096 17.1289 28.1315 16.2305 28.1055C15.332 28.0794 14.4531 28.0664 13.5938 28.0664C12.3958 28.0664 11.2435 28.0794 10.1367 28.1055C9.02995 28.1315 7.89062 28.2096 6.71875 28.3398V25.6055H8.45703C8.84766 25.6055 9.21224 25.599 9.55078 25.5859C9.88932 25.5729 10.1953 25.5208 10.4688 25.4297C10.6641 24.9219 10.7617 24.2188 10.7617 23.3203V2.44141H3.57422C3.36589 2.88411 3.20312 3.51562 3.08594 4.33594C2.96875 5.14323 2.91016 6.10026 2.91016 7.20703H0.214844C0.214844 6.76432 0.201823 6.25651 0.175781 5.68359C0.16276 5.09766 0.136719 4.4987 0.0976562 3.88672C0.0716146 3.26172 0.0455729 2.64323 0.0195312 2.03125C0.00651042 1.40625 0 0.826823 0 0.292969C0.286458 0.14974 0.833333 0.0651042 1.64062 0.0390625C2.46094 0.0130208 3.45052 0 4.60938 0C4.7526 0 5.03255 0.00651042 5.44922 0.0195312C5.87891 0.0195312 6.3737 0.0260417 6.93359 0.0390625C7.50651 0.0520833 8.11849 0.0651042 8.76953 0.078125C9.42057 0.078125 10.0326 0.0846354 10.6055 0.0976562C11.1914 0.110677 11.7057 0.123698 12.1484 0.136719C12.6042 0.136719 12.9232 0.136719 13.1055 0.136719C13.444 0.136719 13.8672 0.136719 14.375 0.136719C14.8828 0.123698 15.4167 0.110677 15.9766 0.0976562C16.5365 0.0846354 17.0964 0.078125 17.6562 0.078125C18.2292 0.0651042 18.7435 0.0520833 19.1992 0.0390625C19.668 0.0260417 20.0521 0.0195312 20.3516 0.0195312C20.651 0.00651042 20.8203 0 20.8594 0C22.0443 0 23.0469 0.0195312 23.8672 0.0585938C24.6875 0.0846354 25.2409 0.16276 25.5273 0.292969C25.5273 0.826823 25.5143 1.40625 25.4883 2.03125C25.4753 2.64323 25.4557 3.26172 25.4297 3.88672C25.4036 4.4987 25.3776 5.09766 25.3516 5.68359C25.3385 6.25651 25.332 6.76432 25.332 7.20703H22.8906Z" fill="black"/>
<path d="M36.5273 20.1699L31.3312 11.1699L41.7235 11.1699L36.5273 20.1699Z" fill="black"/>
</svg>
