<svg width="44" height="29" viewBox="0 0 44 29" fill="none" xmlns="http://www.w3.org/2000/svg">
<path d="M23.6914 7.20703C23.6914 6.10026 23.6328 5.14323 23.5156 4.33594C23.3984 3.51562 23.2357 2.88411 23.0273 2.44141H15.8398V23.0078C15.8398 23.5547 15.8594 24.0234 15.8984 24.4141C15.9505 24.7917 16.0286 25.1302 16.1328 25.4297C16.4193 25.5078 16.7253 25.5599 17.0508 25.5859C17.3893 25.599 17.7539 25.6055 18.1445 25.6055H19.9023V28.3398C18.8867 28.2096 17.9297 28.1315 17.0312 28.1055C16.1328 28.0794 15.2539 28.0664 14.3945 28.0664C13.1966 28.0664 12.0443 28.0794 10.9375 28.1055C9.83073 28.1315 8.69141 28.2096 7.51953 28.3398V25.6055H9.25781C9.64844 25.6055 10.013 25.599 10.3516 25.5859C10.6901 25.5729 10.9961 25.5208 11.2695 25.4297C11.4648 24.9219 11.5625 24.2188 11.5625 23.3203V2.44141H4.375C4.16667 2.88411 4.00391 3.51562 3.88672 4.33594C3.76953 5.14323 3.71094 6.10026 3.71094 7.20703H1.01562C1.01562 6.76432 1.0026 6.25651 0.976562 5.68359C0.963542 5.09766 0.9375 4.4987 0.898438 3.88672C0.872396 3.26172 0.846354 2.64323 0.820312 2.03125C0.807292 1.40625 0.800781 0.826823 0.800781 0.292969C1.08724 0.14974 1.63411 0.0651042 2.44141 0.0390625C3.26172 0.0130208 4.2513 0 5.41016 0C5.55339 0 5.83333 0.00651042 6.25 0.0195312C6.67969 0.0195312 7.17448 0.0260417 7.73438 0.0390625C8.30729 0.0520833 8.91927 0.0651042 9.57031 0.078125C10.2214 0.078125 10.8333 0.0846354 11.4062 0.0976562C11.9922 0.110677 12.5065 0.123698 12.9492 0.136719C13.4049 0.136719 13.724 0.136719 13.9062 0.136719C14.2448 0.136719 14.668 0.136719 15.1758 0.136719C15.6836 0.123698 16.2174 0.110677 16.7773 0.0976562C17.3372 0.0846354 17.8971 0.078125 18.457 0.078125C19.0299 0.0651042 19.5443 0.0520833 20 0.0390625C20.4688 0.0260417 20.8529 0.0195312 21.1523 0.0195312C21.4518 0.00651042 21.6211 0 21.6602 0C22.8451 0 23.8477 0.0195312 24.668 0.0585938C25.4883 0.0846354 26.0417 0.16276 26.3281 0.292969C26.3281 0.826823 26.3151 1.40625 26.2891 2.03125C26.276 2.64323 26.2565 3.26172 26.2305 3.88672C26.2044 4.4987 26.1784 5.09766 26.1523 5.68359C26.1393 6.25651 26.1328 6.76432 26.1328 7.20703H23.6914Z" fill="black"/>
<path d="M37.3281 8.16992L42.5243 17.1699H32.132L37.3281 8.16992Z" fill="black"/>
</svg>
